<svg width="229" height="65" viewBox="0 0 229 65" fill="none" xmlns="http://www.w3.org/2000/svg">
<path d="M7.71243 51.878L7.53043 53.327H3.45643L3.10643 56.204H6.30543L6.13043 57.597H2.93143L2.56743 60.551H6.65543L6.47343 62H0.56543L1.81143 51.878H7.71243Z" fill="#009E77"/>
<path d="M8.4949 62L9.3559 54.811H10.2379C10.4199 54.811 10.5599 54.8554 10.6579 54.944C10.7606 55.0327 10.8119 55.175 10.8119 55.371L10.7629 56.302C11.1269 55.7654 11.5306 55.3664 11.9739 55.105C12.4172 54.839 12.8746 54.706 13.3459 54.706C13.6119 54.706 13.8522 54.755 14.0669 54.853C14.2862 54.9464 14.4729 55.0864 14.6269 55.273C14.7809 55.455 14.8999 55.6814 14.9839 55.952C15.0679 56.218 15.1099 56.526 15.1099 56.876C15.1099 56.9647 15.1052 57.0557 15.0959 57.149C15.0912 57.2377 15.0842 57.331 15.0749 57.429L14.5359 62H12.8069C12.9002 61.2114 12.9796 60.544 13.0449 59.998C13.1102 59.4474 13.1639 58.99 13.2059 58.626C13.2479 58.262 13.2806 57.9774 13.3039 57.772C13.3272 57.562 13.3436 57.4034 13.3529 57.296C13.3669 57.1887 13.3739 57.1187 13.3739 57.086C13.3786 57.0487 13.3809 57.0184 13.3809 56.995C13.3809 56.687 13.3249 56.4654 13.2129 56.33C13.1009 56.19 12.9259 56.12 12.6879 56.12C12.4966 56.12 12.2982 56.176 12.0929 56.288C11.8876 56.4 11.6916 56.5587 11.5049 56.764C11.3182 56.9694 11.1479 57.2167 10.9939 57.506C10.8399 57.7954 10.7139 58.1174 10.6159 58.472L10.2239 62H8.4949Z" fill="#009E77"/>
<path d="M22.7901 56.484C22.7901 56.806 22.7248 57.1 22.5941 57.366C22.4681 57.632 22.2394 57.87 21.9081 58.08C21.5768 58.29 21.1264 58.472 20.5571 58.626C19.9924 58.7754 19.2714 58.8944 18.3941 58.983V59.074C18.3941 60.2034 18.8724 60.768 19.8291 60.768C20.0344 60.768 20.2164 60.7494 20.3751 60.712C20.5338 60.67 20.6714 60.621 20.7881 60.565C20.9094 60.509 21.0168 60.446 21.1101 60.376C21.2081 60.306 21.2968 60.243 21.3761 60.187C21.4601 60.131 21.5418 60.0844 21.6211 60.047C21.7004 60.005 21.7868 59.984 21.8801 59.984C21.9361 59.984 21.9921 59.998 22.0481 60.026C22.1041 60.0494 22.1508 60.0867 22.1881 60.138L22.6291 60.67C22.3818 60.9174 22.1391 61.132 21.9011 61.314C21.6631 61.496 21.4204 61.6454 21.1731 61.762C20.9258 61.8787 20.6644 61.965 20.3891 62.021C20.1138 62.077 19.8128 62.105 19.4861 62.105C19.0661 62.105 18.6858 62.035 18.3451 61.895C18.0044 61.7504 17.7128 61.5497 17.4701 61.293C17.2274 61.0317 17.0384 60.719 16.9031 60.355C16.7724 59.9864 16.7071 59.5757 16.7071 59.123C16.7071 58.745 16.7468 58.374 16.8261 58.01C16.9101 57.646 17.0291 57.3007 17.1831 56.974C17.3371 56.6474 17.5261 56.3464 17.7501 56.071C17.9741 55.7957 18.2261 55.5577 18.5061 55.357C18.7908 55.1564 19.1011 55 19.4371 54.888C19.7778 54.776 20.1418 54.72 20.5291 54.72C20.9071 54.72 21.2361 54.7737 21.5161 54.881C21.8008 54.9884 22.0364 55.1284 22.2231 55.301C22.4144 55.469 22.5568 55.658 22.6501 55.868C22.7434 56.078 22.7901 56.2834 22.7901 56.484ZM20.4311 55.924C20.1978 55.924 19.9808 55.973 19.7801 56.071C19.5794 56.1644 19.3974 56.2974 19.2341 56.47C19.0754 56.6427 18.9354 56.8504 18.8141 57.093C18.6974 57.331 18.6041 57.5924 18.5341 57.877C19.1128 57.7977 19.5771 57.7114 19.9271 57.618C20.2818 57.5247 20.5548 57.422 20.7461 57.31C20.9421 57.198 21.0704 57.079 21.1311 56.953C21.1964 56.827 21.2291 56.6917 21.2291 56.547C21.2291 56.477 21.2128 56.4047 21.1801 56.33C21.1521 56.2554 21.1054 56.19 21.0401 56.134C20.9794 56.0734 20.8978 56.0244 20.7951 55.987C20.6971 55.945 20.5758 55.924 20.4311 55.924Z" fill="#009E77"/>
<path d="M24.0453 62L24.9203 54.811H25.7953C25.9633 54.811 26.101 54.8484 26.2083 54.923C26.3156 54.9977 26.3693 55.1167 26.3693 55.28C26.3693 55.28 26.3693 55.2894 26.3693 55.308C26.3693 55.322 26.367 55.3687 26.3623 55.448C26.3576 55.5274 26.353 55.6534 26.3483 55.826C26.3436 55.994 26.3343 56.232 26.3203 56.54C26.6143 55.9754 26.9363 55.539 27.2863 55.231C27.6363 54.923 28.0003 54.769 28.3783 54.769C28.5696 54.769 28.7633 54.811 28.9593 54.895L28.6443 56.547C28.411 56.449 28.1893 56.4 27.9793 56.4C27.564 56.4 27.2 56.5984 26.8873 56.995C26.5746 57.3917 26.318 58.0124 26.1173 58.857L25.7393 62H24.0453Z" fill="#009E77"/>
<path d="M35.4872 56.897C35.4872 57.1117 35.4639 57.3054 35.4172 57.478C35.3706 57.646 35.3122 57.8024 35.2422 57.947C35.1769 58.0917 35.1046 58.2294 35.0252 58.36C34.9459 58.486 34.8712 58.6167 34.8012 58.752C34.7312 58.8827 34.6729 59.0227 34.6262 59.172C34.5842 59.3167 34.5632 59.4777 34.5632 59.655C34.5632 59.8464 34.6029 60.0237 34.6822 60.187C34.7616 60.3457 34.8479 60.509 34.9412 60.677C35.0346 60.845 35.1209 61.0247 35.2002 61.216C35.2796 61.4074 35.3192 61.629 35.3192 61.881C35.3192 62.2357 35.2399 62.5717 35.0812 62.889C34.9226 63.211 34.6939 63.491 34.3952 63.729C34.0966 63.9717 33.7326 64.163 33.3032 64.303C32.8739 64.443 32.3886 64.513 31.8472 64.513C31.4039 64.513 31.0049 64.4664 30.6502 64.373C30.3002 64.2844 29.9992 64.1584 29.7472 63.995C29.4999 63.8317 29.3109 63.638 29.1802 63.414C29.0449 63.1947 28.9772 62.952 28.9772 62.686C28.9772 62.2894 29.0776 61.9557 29.2782 61.685C29.4789 61.4144 29.7379 61.1974 30.0552 61.034C30.3726 60.866 30.7272 60.747 31.1192 60.677C31.5159 60.6024 31.9102 60.565 32.3022 60.565C32.4936 60.565 32.6802 60.5744 32.8622 60.593C33.0442 60.607 33.2169 60.628 33.3802 60.656C33.3616 60.5814 33.3452 60.5067 33.3312 60.432C33.3219 60.3574 33.3172 60.278 33.3172 60.194C33.3172 59.9234 33.3919 59.6247 33.5412 59.298C33.3639 59.4194 33.1632 59.5127 32.9392 59.578C32.7152 59.6434 32.4446 59.676 32.1272 59.676C31.8566 59.676 31.5976 59.6317 31.3502 59.543C31.1076 59.4544 30.8929 59.319 30.7062 59.137C30.5196 58.955 30.3702 58.7287 30.2582 58.458C30.1509 58.1827 30.0972 57.863 30.0972 57.499C30.0972 57.149 30.1626 56.8084 30.2932 56.477C30.4239 56.141 30.6176 55.8424 30.8742 55.581C31.1309 55.315 31.4482 55.1027 31.8262 54.944C32.2042 54.7854 32.6429 54.706 33.1422 54.706C33.4082 54.706 33.6602 54.7387 33.8982 54.804C34.1409 54.8647 34.3626 54.9557 34.5632 55.077H36.5722L36.4952 55.637C36.4766 55.749 36.4392 55.8447 36.3832 55.924C36.3319 56.0034 36.2549 56.057 36.1522 56.085L35.4172 56.281C35.4406 56.3744 35.4569 56.4724 35.4662 56.575C35.4802 56.6777 35.4872 56.785 35.4872 56.897ZM32.6172 58.633C32.8272 58.633 33.0116 58.584 33.1702 58.486C33.3289 58.388 33.4619 58.2597 33.5692 58.101C33.6812 57.9424 33.7652 57.765 33.8212 57.569C33.8772 57.3684 33.9052 57.1654 33.9052 56.96C33.9052 56.61 33.8236 56.3417 33.6602 56.155C33.4969 55.9684 33.2589 55.875 32.9462 55.875C32.7362 55.875 32.5519 55.9217 32.3932 56.015C32.2346 56.1037 32.1016 56.225 31.9942 56.379C31.8869 56.5284 31.8052 56.701 31.7492 56.897C31.6979 57.093 31.6722 57.296 31.6722 57.506C31.6722 57.8654 31.7516 58.143 31.9102 58.339C32.0736 58.535 32.3092 58.633 32.6172 58.633ZM33.7442 62.028C33.7442 61.9627 33.7396 61.8997 33.7302 61.839C33.7256 61.7737 33.7186 61.713 33.7092 61.657C33.4572 61.615 33.2239 61.5847 33.0092 61.566C32.7992 61.5474 32.6009 61.538 32.4142 61.538C32.0969 61.538 31.8239 61.5637 31.5952 61.615C31.3712 61.6664 31.1846 61.734 31.0352 61.818C30.8906 61.902 30.7832 62 30.7132 62.112C30.6479 62.224 30.6152 62.343 30.6152 62.469C30.6152 62.749 30.7272 62.9614 30.9512 63.106C31.1752 63.2507 31.5206 63.323 31.9872 63.323C32.2486 63.323 32.4866 63.2904 32.7012 63.225C32.9159 63.1597 33.1002 63.0687 33.2542 62.952C33.4082 62.8354 33.5272 62.6977 33.6112 62.539C33.6999 62.3804 33.7442 62.21 33.7442 62.028Z" fill="#009E77"/>
<path d="M40.0491 54.818L39.1881 62H37.4801L38.3411 54.818H40.0491ZM40.4831 52.725C40.4831 52.8744 40.4505 53.0144 40.3851 53.145C40.3245 53.2757 40.2428 53.39 40.1402 53.488C40.0422 53.586 39.9278 53.6654 39.7971 53.726C39.6665 53.782 39.5312 53.81 39.3912 53.81C39.2558 53.81 39.1228 53.782 38.9921 53.726C38.8661 53.6654 38.7542 53.586 38.6562 53.488C38.5582 53.39 38.4788 53.2757 38.4182 53.145C38.3622 53.0144 38.3342 52.8744 38.3342 52.725C38.3342 52.5757 38.3645 52.4334 38.4251 52.298C38.4858 52.1627 38.5651 52.046 38.6631 51.948C38.7611 51.8454 38.8731 51.766 38.9991 51.71C39.1298 51.6494 39.2628 51.619 39.3981 51.619C39.5381 51.619 39.6735 51.6494 39.8041 51.71C39.9348 51.766 40.0491 51.843 40.1471 51.941C40.2498 52.039 40.3315 52.1557 40.3922 52.291C40.4528 52.4264 40.4831 52.571 40.4831 52.725Z" fill="#009E77"/>
<path d="M47.3545 55.532C47.3405 55.6534 47.3079 55.7724 47.2565 55.889C47.2099 56.0057 47.1492 56.1014 47.0745 56.176L43.4835 60.67H46.6405L46.4865 62H41.2645L41.3555 61.279C41.3649 61.1997 41.3929 61.104 41.4395 60.992C41.4909 60.88 41.5562 60.7774 41.6355 60.684L45.2545 56.141H42.1675L42.3285 54.818H47.4455L47.3545 55.532Z" fill="#009E77"/>
<path d="M51.1972 54.818L50.3362 62H48.6282L49.4892 54.818H51.1972ZM51.6312 52.725C51.6312 52.8744 51.5985 53.0144 51.5332 53.145C51.4725 53.2757 51.3909 53.39 51.2882 53.488C51.1902 53.586 51.0759 53.6654 50.9452 53.726C50.8145 53.782 50.6792 53.81 50.5392 53.81C50.4039 53.81 50.2709 53.782 50.1402 53.726C50.0142 53.6654 49.9022 53.586 49.8042 53.488C49.7062 53.39 49.6269 53.2757 49.5662 53.145C49.5102 53.0144 49.4822 52.8744 49.4822 52.725C49.4822 52.5757 49.5125 52.4334 49.5732 52.298C49.6339 52.1627 49.7132 52.046 49.8112 51.948C49.9092 51.8454 50.0212 51.766 50.1472 51.71C50.2779 51.6494 50.4109 51.619 50.5462 51.619C50.6862 51.619 50.8215 51.6494 50.9522 51.71C51.0829 51.766 51.1972 51.843 51.2952 51.941C51.3979 52.039 51.4795 52.1557 51.5402 52.291C51.6009 52.4264 51.6312 52.571 51.6312 52.725Z" fill="#009E77"/>
<path d="M52.7836 62L53.6446 54.811H54.5266C54.7086 54.811 54.8486 54.8554 54.9466 54.944C55.0492 55.0327 55.1006 55.175 55.1006 55.371L55.0516 56.302C55.4156 55.7654 55.8192 55.3664 56.2626 55.105C56.7059 54.839 57.1632 54.706 57.6346 54.706C57.9006 54.706 58.1409 54.755 58.3556 54.853C58.5749 54.9464 58.7616 55.0864 58.9156 55.273C59.0696 55.455 59.1886 55.6814 59.2726 55.952C59.3566 56.218 59.3986 56.526 59.3986 56.876C59.3986 56.9647 59.3939 57.0557 59.3846 57.149C59.3799 57.2377 59.3729 57.331 59.3636 57.429L58.8246 62H57.0956C57.1889 61.2114 57.2682 60.544 57.3336 59.998C57.3989 59.4474 57.4526 58.99 57.4946 58.626C57.5366 58.262 57.5692 57.9774 57.5926 57.772C57.6159 57.562 57.6322 57.4034 57.6416 57.296C57.6556 57.1887 57.6626 57.1187 57.6626 57.086C57.6672 57.0487 57.6696 57.0184 57.6696 56.995C57.6696 56.687 57.6136 56.4654 57.5016 56.33C57.3896 56.19 57.2146 56.12 56.9766 56.12C56.7852 56.12 56.5869 56.176 56.3816 56.288C56.1762 56.4 55.9802 56.5587 55.7936 56.764C55.6069 56.9694 55.4366 57.2167 55.2826 57.506C55.1286 57.7954 55.0026 58.1174 54.9046 58.472L54.5126 62H52.7836Z" fill="#009E77"/>
<path d="M66.6728 56.897C66.6728 57.1117 66.6494 57.3054 66.6028 57.478C66.5561 57.646 66.4978 57.8024 66.4278 57.947C66.3624 58.0917 66.2901 58.2294 66.2108 58.36C66.1314 58.486 66.0568 58.6167 65.9868 58.752C65.9168 58.8827 65.8584 59.0227 65.8118 59.172C65.7698 59.3167 65.7488 59.4777 65.7488 59.655C65.7488 59.8464 65.7885 60.0237 65.8678 60.187C65.9471 60.3457 66.0334 60.509 66.1268 60.677C66.2201 60.845 66.3064 61.0247 66.3858 61.216C66.4651 61.4074 66.5048 61.629 66.5048 61.881C66.5048 62.2357 66.4254 62.5717 66.2668 62.889C66.1081 63.211 65.8794 63.491 65.5808 63.729C65.2821 63.9717 64.9181 64.163 64.4888 64.303C64.0594 64.443 63.5741 64.513 63.0328 64.513C62.5894 64.513 62.1904 64.4664 61.8358 64.373C61.4858 64.2844 61.1848 64.1584 60.9328 63.995C60.6854 63.8317 60.4964 63.638 60.3658 63.414C60.2304 63.1947 60.1628 62.952 60.1628 62.686C60.1628 62.2894 60.2631 61.9557 60.4638 61.685C60.6644 61.4144 60.9234 61.1974 61.2408 61.034C61.5581 60.866 61.9128 60.747 62.3048 60.677C62.7014 60.6024 63.0958 60.565 63.4878 60.565C63.6791 60.565 63.8658 60.5744 64.0478 60.593C64.2298 60.607 64.4024 60.628 64.5658 60.656C64.5471 60.5814 64.5308 60.5067 64.5168 60.432C64.5074 60.3574 64.5028 60.278 64.5028 60.194C64.5028 59.9234 64.5774 59.6247 64.7268 59.298C64.5494 59.4194 64.3488 59.5127 64.1248 59.578C63.9008 59.6434 63.6301 59.676 63.3128 59.676C63.0421 59.676 62.7831 59.6317 62.5358 59.543C62.2931 59.4544 62.0784 59.319 61.8918 59.137C61.7051 58.955 61.5558 58.7287 61.4438 58.458C61.3364 58.1827 61.2828 57.863 61.2828 57.499C61.2828 57.149 61.3481 56.8084 61.4788 56.477C61.6094 56.141 61.8031 55.8424 62.0598 55.581C62.3164 55.315 62.6338 55.1027 63.0118 54.944C63.3898 54.7854 63.8284 54.706 64.3278 54.706C64.5938 54.706 64.8458 54.7387 65.0838 54.804C65.3264 54.8647 65.5481 54.9557 65.7488 55.077H67.7578L67.6808 55.637C67.6621 55.749 67.6248 55.8447 67.5688 55.924C67.5174 56.0034 67.4404 56.057 67.3378 56.085L66.6028 56.281C66.6261 56.3744 66.6424 56.4724 66.6518 56.575C66.6658 56.6777 66.6728 56.785 66.6728 56.897ZM63.8028 58.633C64.0128 58.633 64.1971 58.584 64.3558 58.486C64.5144 58.388 64.6474 58.2597 64.7548 58.101C64.8668 57.9424 64.9508 57.765 65.0068 57.569C65.0628 57.3684 65.0908 57.1654 65.0908 56.96C65.0908 56.61 65.0091 56.3417 64.8458 56.155C64.6824 55.9684 64.4444 55.875 64.1318 55.875C63.9218 55.875 63.7374 55.9217 63.5788 56.015C63.4201 56.1037 63.2871 56.225 63.1798 56.379C63.0724 56.5284 62.9908 56.701 62.9348 56.897C62.8834 57.093 62.8578 57.296 62.8578 57.506C62.8578 57.8654 62.9371 58.143 63.0958 58.339C63.2591 58.535 63.4948 58.633 63.8028 58.633ZM64.9298 62.028C64.9298 61.9627 64.9251 61.8997 64.9158 61.839C64.9111 61.7737 64.9041 61.713 64.8948 61.657C64.6428 61.615 64.4094 61.5847 64.1948 61.566C63.9848 61.5474 63.7864 61.538 63.5998 61.538C63.2824 61.538 63.0094 61.5637 62.7808 61.615C62.5568 61.6664 62.3701 61.734 62.2208 61.818C62.0761 61.902 61.9688 62 61.8988 62.112C61.8334 62.224 61.8008 62.343 61.8008 62.469C61.8008 62.749 61.9128 62.9614 62.1368 63.106C62.3608 63.2507 62.7061 63.323 63.1728 63.323C63.4341 63.323 63.6721 63.2904 63.8868 63.225C64.1014 63.1597 64.2858 63.0687 64.4398 62.952C64.5938 62.8354 64.7128 62.6977 64.7968 62.539C64.8854 62.3804 64.9298 62.21 64.9298 62.028Z" fill="#009E77"/>
<path d="M74.0397 60.495H77.7217L77.5467 62H72.0447L73.2907 51.878H75.1037L74.0397 60.495Z" fill="#009E77"/>
<path d="M81.9999 54.818L81.1389 62H79.4309L80.2919 54.818H81.9999ZM82.4339 52.725C82.4339 52.8744 82.4013 53.0144 82.3359 53.145C82.2753 53.2757 82.1936 53.39 82.0909 53.488C81.9929 53.586 81.8786 53.6654 81.7479 53.726C81.6173 53.782 81.4819 53.81 81.3419 53.81C81.2066 53.81 81.0736 53.782 80.9429 53.726C80.8169 53.6654 80.7049 53.586 80.6069 53.488C80.5089 53.39 80.4296 53.2757 80.3689 53.145C80.3129 53.0144 80.2849 52.8744 80.2849 52.725C80.2849 52.5757 80.3153 52.4334 80.3759 52.298C80.4366 52.1627 80.5159 52.046 80.6139 51.948C80.7119 51.8454 80.8239 51.766 80.9499 51.71C81.0806 51.6494 81.2136 51.619 81.3489 51.619C81.4889 51.619 81.6243 51.6494 81.7549 51.71C81.8856 51.766 81.9999 51.843 82.0979 51.941C82.2006 52.039 82.2823 52.1557 82.3429 52.291C82.4036 52.4264 82.4339 52.571 82.4339 52.725Z" fill="#009E77"/>
<path d="M86.2463 56.113L85.5673 61.706L85.2103 63.022C85.145 63.2507 85.0423 63.4257 84.9023 63.547C84.767 63.6684 84.5733 63.729 84.3213 63.729H83.6283L84.5453 56.113L83.9923 56.015C83.8896 55.9964 83.8056 55.959 83.7403 55.903C83.675 55.8424 83.6423 55.7584 83.6423 55.651C83.6423 55.6464 83.6423 55.637 83.6423 55.623C83.647 55.609 83.6516 55.5787 83.6563 55.532C83.661 55.4807 83.668 55.406 83.6773 55.308C83.6913 55.2054 83.71 55.063 83.7333 54.881H84.6993L84.7623 54.349C84.8136 53.9384 84.921 53.5697 85.0843 53.243C85.2523 52.9164 85.4623 52.6387 85.7143 52.41C85.971 52.1814 86.265 52.0064 86.5963 51.885C86.9276 51.7637 87.2846 51.703 87.6673 51.703C87.966 51.703 88.2413 51.7474 88.4933 51.836L88.3393 52.732C88.33 52.7834 88.3066 52.8254 88.2693 52.858C88.2366 52.886 88.1946 52.907 88.1433 52.921C88.092 52.935 88.0336 52.9444 87.9683 52.949C87.9076 52.9537 87.8446 52.956 87.7793 52.956C87.5926 52.956 87.42 52.9817 87.2613 53.033C87.1073 53.0844 86.9696 53.1684 86.8483 53.285C86.7316 53.397 86.6336 53.5464 86.5543 53.733C86.4796 53.915 86.426 54.139 86.3933 54.405L86.3373 54.881H87.9473L87.7863 56.113H86.2463Z" fill="#009E77"/>
<path d="M94.8053 56.484C94.8053 56.806 94.74 57.1 94.6093 57.366C94.4833 57.632 94.2547 57.87 93.9233 58.08C93.592 58.29 93.1417 58.472 92.5723 58.626C92.0077 58.7754 91.2867 58.8944 90.4093 58.983V59.074C90.4093 60.2034 90.8877 60.768 91.8443 60.768C92.0497 60.768 92.2317 60.7494 92.3903 60.712C92.549 60.67 92.6867 60.621 92.8033 60.565C92.9247 60.509 93.032 60.446 93.1253 60.376C93.2233 60.306 93.312 60.243 93.3913 60.187C93.4753 60.131 93.557 60.0844 93.6363 60.047C93.7157 60.005 93.802 59.984 93.8953 59.984C93.9513 59.984 94.0073 59.998 94.0633 60.026C94.1193 60.0494 94.166 60.0867 94.2033 60.138L94.6443 60.67C94.397 60.9174 94.1543 61.132 93.9163 61.314C93.6783 61.496 93.4357 61.6454 93.1883 61.762C92.941 61.8787 92.6797 61.965 92.4043 62.021C92.129 62.077 91.828 62.105 91.5013 62.105C91.0813 62.105 90.701 62.035 90.3603 61.895C90.0197 61.7504 89.728 61.5497 89.4853 61.293C89.2427 61.0317 89.0537 60.719 88.9183 60.355C88.7877 59.9864 88.7223 59.5757 88.7223 59.123C88.7223 58.745 88.762 58.374 88.8413 58.01C88.9253 57.646 89.0443 57.3007 89.1983 56.974C89.3523 56.6474 89.5413 56.3464 89.7653 56.071C89.9893 55.7957 90.2413 55.5577 90.5213 55.357C90.806 55.1564 91.1163 55 91.4523 54.888C91.793 54.776 92.157 54.72 92.5443 54.72C92.9223 54.72 93.2513 54.7737 93.5313 54.881C93.816 54.9884 94.0517 55.1284 94.2383 55.301C94.4297 55.469 94.572 55.658 94.6653 55.868C94.7587 56.078 94.8053 56.2834 94.8053 56.484ZM92.4463 55.924C92.213 55.924 91.996 55.973 91.7953 56.071C91.5947 56.1644 91.4127 56.2974 91.2493 56.47C91.0907 56.6427 90.9507 56.8504 90.8293 57.093C90.7127 57.331 90.6193 57.5924 90.5493 57.877C91.128 57.7977 91.5923 57.7114 91.9423 57.618C92.297 57.5247 92.57 57.422 92.7613 57.31C92.9573 57.198 93.0857 57.079 93.1463 56.953C93.2117 56.827 93.2443 56.6917 93.2443 56.547C93.2443 56.477 93.228 56.4047 93.1953 56.33C93.1673 56.2554 93.1207 56.19 93.0553 56.134C92.9947 56.0734 92.913 56.0244 92.8103 55.987C92.7123 55.945 92.591 55.924 92.4463 55.924Z" fill="#009E77"/>
<path d="M101.624 62H99.7966L101.036 51.878H102.863L101.624 62Z" fill="#009E77"/>
<path d="M104.228 62L105.089 54.811H105.971C106.153 54.811 106.293 54.8554 106.391 54.944C106.494 55.0327 106.545 55.175 106.545 55.371L106.496 56.302C106.86 55.7654 107.264 55.3664 107.707 55.105C108.15 54.839 108.608 54.706 109.079 54.706C109.345 54.706 109.585 54.755 109.8 54.853C110.019 54.9464 110.206 55.0864 110.36 55.273C110.514 55.455 110.633 55.6814 110.717 55.952C110.801 56.218 110.843 56.526 110.843 56.876C110.843 56.9647 110.838 57.0557 110.829 57.149C110.824 57.2377 110.817 57.331 110.808 57.429L110.269 62H108.54C108.633 61.2114 108.713 60.544 108.778 59.998C108.843 59.4474 108.897 58.99 108.939 58.626C108.981 58.262 109.014 57.9774 109.037 57.772C109.06 57.562 109.077 57.4034 109.086 57.296C109.1 57.1887 109.107 57.1187 109.107 57.086C109.112 57.0487 109.114 57.0184 109.114 56.995C109.114 56.687 109.058 56.4654 108.946 56.33C108.834 56.19 108.659 56.12 108.421 56.12C108.23 56.12 108.031 56.176 107.826 56.288C107.621 56.4 107.425 56.5587 107.238 56.764C107.051 56.9694 106.881 57.2167 106.727 57.506C106.573 57.7954 106.447 58.1174 106.349 58.472L105.957 62H104.228Z" fill="#009E77"/>
<path d="M125.626 56.26C125.626 56.82 125.563 57.3544 125.437 57.863C125.316 58.367 125.139 58.836 124.905 59.27C124.677 59.704 124.399 60.096 124.072 60.446C123.75 60.796 123.386 61.0947 122.98 61.342C122.579 61.5894 122.143 61.7807 121.671 61.916C121.2 62.0467 120.705 62.112 120.187 62.112C119.543 62.112 118.965 61.9977 118.451 61.769C117.938 61.5404 117.499 61.2254 117.135 60.824C116.776 60.4227 116.501 59.949 116.309 59.403C116.118 58.857 116.022 58.2644 116.022 57.625C116.022 57.065 116.083 56.533 116.204 56.029C116.33 55.5204 116.508 55.049 116.736 54.615C116.97 54.181 117.247 53.789 117.569 53.439C117.896 53.089 118.26 52.7904 118.661 52.543C119.067 52.291 119.506 52.0997 119.977 51.969C120.449 51.8337 120.946 51.766 121.468 51.766C122.112 51.766 122.691 51.8804 123.204 52.109C123.718 52.3377 124.154 52.6527 124.513 53.054C124.873 53.4554 125.148 53.9314 125.339 54.482C125.531 55.028 125.626 55.6207 125.626 56.26ZM123.764 56.302C123.764 55.8447 123.706 55.4294 123.589 55.056C123.477 54.6827 123.312 54.363 123.092 54.097C122.878 53.831 122.614 53.6257 122.301 53.481C121.989 53.3364 121.636 53.264 121.244 53.264C120.74 53.264 120.281 53.3667 119.865 53.572C119.455 53.7774 119.102 54.069 118.808 54.447C118.514 54.825 118.286 55.28 118.122 55.812C117.964 56.344 117.884 56.9344 117.884 57.583C117.884 58.0404 117.94 58.4557 118.052 58.829C118.164 59.2024 118.328 59.522 118.542 59.788C118.757 60.0494 119.018 60.2524 119.326 60.397C119.639 60.537 119.994 60.607 120.39 60.607C120.899 60.607 121.361 60.5044 121.776 60.299C122.192 60.0937 122.546 59.8044 122.84 59.431C123.134 59.0577 123.361 58.6074 123.519 58.08C123.683 57.548 123.764 56.9554 123.764 56.302Z" fill="#009E77"/>
<path d="M129.321 54.818C129.228 55.6067 129.149 56.274 129.083 56.82C129.018 57.366 128.964 57.821 128.922 58.185C128.88 58.549 128.848 58.836 128.824 59.046C128.801 59.256 128.782 59.4147 128.768 59.522C128.759 59.6294 128.752 59.7017 128.747 59.739C128.747 59.7764 128.747 59.8067 128.747 59.83C128.747 60.138 128.803 60.3597 128.915 60.495C129.032 60.6257 129.207 60.691 129.44 60.691C129.622 60.691 129.809 60.642 130 60.544C130.196 60.4414 130.383 60.2967 130.56 60.11C130.742 59.9234 130.91 59.697 131.064 59.431C131.218 59.165 131.349 58.8687 131.456 58.542L131.904 54.818H133.633L132.765 62H131.89C131.811 62 131.734 61.9907 131.659 61.972C131.589 61.9487 131.524 61.916 131.463 61.874C131.407 61.832 131.361 61.7784 131.323 61.713C131.291 61.6477 131.274 61.5707 131.274 61.482V61.454L131.316 60.579C130.952 61.0924 130.553 61.475 130.119 61.727C129.69 61.979 129.244 62.105 128.782 62.105C128.516 62.105 128.274 62.0584 128.054 61.965C127.84 61.867 127.655 61.727 127.501 61.545C127.347 61.363 127.228 61.139 127.144 60.873C127.06 60.6024 127.018 60.2944 127.018 59.949C127.018 59.8557 127.021 59.7624 127.025 59.669C127.03 59.5757 127.039 59.4777 127.053 59.375L127.592 54.818H129.321Z" fill="#009E77"/>
<path d="M135.042 62L135.917 54.811H136.792C136.96 54.811 137.097 54.8484 137.205 54.923C137.312 54.9977 137.366 55.1167 137.366 55.28C137.366 55.28 137.366 55.2894 137.366 55.308C137.366 55.322 137.363 55.3687 137.359 55.448C137.354 55.5274 137.349 55.6534 137.345 55.826C137.34 55.994 137.331 56.232 137.317 56.54C137.611 55.9754 137.933 55.539 138.283 55.231C138.633 54.923 138.997 54.769 139.375 54.769C139.566 54.769 139.76 54.811 139.956 54.895L139.641 56.547C139.407 56.449 139.186 56.4 138.976 56.4C138.56 56.4 138.196 56.5984 137.884 56.995C137.571 57.3917 137.314 58.0124 137.114 58.857L136.736 62H135.042Z" fill="#009E77"/>
<path d="M148.617 60.572C148.901 60.572 149.149 60.551 149.359 60.509C149.573 60.4624 149.758 60.404 149.912 60.334C150.07 60.264 150.206 60.1917 150.318 60.117C150.43 60.0377 150.528 59.963 150.612 59.893C150.696 59.823 150.77 59.767 150.836 59.725C150.901 59.6784 150.966 59.655 151.032 59.655C151.088 59.655 151.134 59.6667 151.172 59.69C151.209 59.7134 151.239 59.7367 151.263 59.76L151.9 60.551C151.461 61.055 150.945 61.4424 150.353 61.713C149.76 61.979 149.079 62.112 148.309 62.112C147.688 62.112 147.135 62.0024 146.65 61.783C146.164 61.559 145.754 61.251 145.418 60.859C145.082 60.467 144.825 60.0027 144.648 59.466C144.475 58.9294 144.389 58.3437 144.389 57.709C144.389 57.1257 144.452 56.575 144.578 56.057C144.704 55.5344 144.883 55.0537 145.117 54.615C145.35 54.1717 145.63 53.775 145.957 53.425C146.283 53.075 146.645 52.7764 147.042 52.529C147.438 52.2817 147.865 52.0927 148.323 51.962C148.785 51.8314 149.265 51.766 149.765 51.766C150.133 51.766 150.469 51.801 150.773 51.871C151.076 51.9364 151.351 52.0297 151.599 52.151C151.846 52.2724 152.068 52.4194 152.264 52.592C152.46 52.76 152.637 52.949 152.796 53.159L152.166 53.915C152.119 53.971 152.063 54.02 151.998 54.062C151.937 54.104 151.86 54.125 151.767 54.125C151.664 54.125 151.566 54.083 151.473 53.999C151.379 53.915 151.26 53.824 151.116 53.726C150.976 53.6234 150.791 53.53 150.563 53.446C150.339 53.362 150.042 53.32 149.674 53.32C149.188 53.32 148.738 53.4204 148.323 53.621C147.907 53.817 147.546 54.0994 147.238 54.468C146.93 54.8367 146.687 55.2824 146.51 55.805C146.337 56.323 146.251 56.9064 146.251 57.555C146.251 58.0264 146.309 58.4487 146.426 58.822C146.547 59.1954 146.713 59.5127 146.923 59.774C147.133 60.0307 147.382 60.229 147.672 60.369C147.961 60.5044 148.276 60.572 148.617 60.572Z" fill="#009E77"/>
<path d="M156.24 60.775C156.529 60.775 156.791 60.6934 157.024 60.53C157.257 60.362 157.456 60.1404 157.619 59.865C157.787 59.585 157.915 59.2607 158.004 58.892C158.093 58.5234 158.137 58.136 158.137 57.73C158.137 57.1467 158.037 56.7174 157.836 56.442C157.64 56.1667 157.341 56.029 156.94 56.029C156.651 56.029 156.389 56.1107 156.156 56.274C155.923 56.4374 155.724 56.659 155.561 56.939C155.398 57.219 155.272 57.5434 155.183 57.912C155.094 58.2807 155.05 58.6704 155.05 59.081C155.05 59.6644 155.148 60.0937 155.344 60.369C155.54 60.6397 155.839 60.775 156.24 60.775ZM156.086 62.105C155.689 62.105 155.321 62.0397 154.98 61.909C154.644 61.7737 154.352 61.5777 154.105 61.321C153.862 61.0644 153.671 60.7494 153.531 60.376C153.391 60.0027 153.321 59.5757 153.321 59.095C153.321 58.4744 153.419 57.8957 153.615 57.359C153.816 56.8224 154.086 56.358 154.427 55.966C154.772 55.574 155.174 55.266 155.631 55.042C156.088 54.818 156.576 54.706 157.094 54.706C157.491 54.706 157.857 54.7737 158.193 54.909C158.534 55.0397 158.828 55.2334 159.075 55.49C159.322 55.7467 159.516 56.0617 159.656 56.435C159.796 56.8084 159.866 57.2354 159.866 57.716C159.866 58.332 159.766 58.9084 159.565 59.445C159.364 59.977 159.091 60.4414 158.746 60.838C158.405 61.23 158.006 61.5404 157.549 61.769C157.092 61.993 156.604 62.105 156.086 62.105Z" fill="#009E77"/>
<path d="M161.221 62L162.096 54.811H162.971C163.148 54.811 163.288 54.853 163.391 54.937C163.493 55.021 163.545 55.154 163.545 55.336C163.545 55.3407 163.545 55.3477 163.545 55.357C163.545 55.3664 163.542 55.399 163.538 55.455C163.538 55.5064 163.535 55.588 163.531 55.7C163.526 55.8074 163.519 55.9614 163.51 56.162C163.832 55.672 164.182 55.308 164.56 55.07C164.938 54.8274 165.332 54.706 165.743 54.706C166.186 54.706 166.534 54.853 166.786 55.147C167.042 55.441 167.192 55.8657 167.234 56.421C167.57 55.833 167.941 55.4014 168.347 55.126C168.757 54.846 169.203 54.706 169.684 54.706C170.22 54.706 170.633 54.888 170.923 55.252C171.217 55.6114 171.364 56.1317 171.364 56.813C171.364 56.9064 171.361 57.0067 171.357 57.114C171.352 57.2167 171.343 57.3217 171.329 57.429L170.79 62H169.082C169.175 61.2067 169.254 60.5347 169.32 59.984C169.385 59.4287 169.439 58.9667 169.481 58.598C169.523 58.2247 169.555 57.933 169.579 57.723C169.602 57.513 169.618 57.352 169.628 57.24C169.642 57.1234 169.649 57.0464 169.649 57.009C169.653 56.967 169.656 56.9344 169.656 56.911C169.656 56.631 169.609 56.4304 169.516 56.309C169.422 56.183 169.271 56.12 169.061 56.12C168.883 56.12 168.711 56.1667 168.543 56.26C168.375 56.3534 168.214 56.4887 168.06 56.666C167.91 56.8434 167.77 57.0604 167.64 57.317C167.514 57.5737 167.402 57.863 167.304 58.185L166.856 62H165.155L165.694 57.429C165.703 57.331 165.71 57.24 165.715 57.156C165.724 57.0674 165.729 56.9857 165.729 56.911C165.729 56.631 165.682 56.4304 165.589 56.309C165.5 56.183 165.351 56.12 165.141 56.12C164.959 56.12 164.781 56.169 164.609 56.267C164.436 56.365 164.273 56.5074 164.119 56.694C163.969 56.876 163.829 57.1 163.699 57.366C163.573 57.6274 163.461 57.9214 163.363 58.248L162.915 62H161.221Z" fill="#009E77"/>
<path d="M172.981 62L173.856 54.811H174.731C174.909 54.811 175.049 54.853 175.151 54.937C175.254 55.021 175.305 55.154 175.305 55.336C175.305 55.3407 175.305 55.3477 175.305 55.357C175.305 55.3664 175.303 55.399 175.298 55.455C175.298 55.5064 175.296 55.588 175.291 55.7C175.287 55.8074 175.28 55.9614 175.27 56.162C175.592 55.672 175.942 55.308 176.32 55.07C176.698 54.8274 177.093 54.706 177.503 54.706C177.947 54.706 178.294 54.853 178.546 55.147C178.803 55.441 178.952 55.8657 178.994 56.421C179.33 55.833 179.701 55.4014 180.107 55.126C180.518 54.846 180.964 54.706 181.444 54.706C181.981 54.706 182.394 54.888 182.683 55.252C182.977 55.6114 183.124 56.1317 183.124 56.813C183.124 56.9064 183.122 57.0067 183.117 57.114C183.113 57.2167 183.103 57.3217 183.089 57.429L182.55 62H180.842C180.936 61.2067 181.015 60.5347 181.08 59.984C181.146 59.4287 181.199 58.9667 181.241 58.598C181.283 58.2247 181.316 57.933 181.339 57.723C181.363 57.513 181.379 57.352 181.388 57.24C181.402 57.1234 181.409 57.0464 181.409 57.009C181.414 56.967 181.416 56.9344 181.416 56.911C181.416 56.631 181.37 56.4304 181.276 56.309C181.183 56.183 181.031 56.12 180.821 56.12C180.644 56.12 180.471 56.1667 180.303 56.26C180.135 56.3534 179.974 56.4887 179.82 56.666C179.671 56.8434 179.531 57.0604 179.4 57.317C179.274 57.5737 179.162 57.863 179.064 58.185L178.616 62H176.915L177.454 57.429C177.464 57.331 177.471 57.24 177.475 57.156C177.485 57.0674 177.489 56.9857 177.489 56.911C177.489 56.631 177.443 56.4304 177.349 56.309C177.261 56.183 177.111 56.12 176.901 56.12C176.719 56.12 176.542 56.169 176.369 56.267C176.197 56.365 176.033 56.5074 175.879 56.694C175.73 56.876 175.59 57.1 175.459 57.366C175.333 57.6274 175.221 57.9214 175.123 58.248L174.675 62H172.981Z" fill="#009E77"/>
<path d="M187.241 54.818C187.147 55.6067 187.068 56.274 187.003 56.82C186.937 57.366 186.884 57.821 186.842 58.185C186.8 58.549 186.767 58.836 186.744 59.046C186.72 59.256 186.702 59.4147 186.688 59.522C186.678 59.6294 186.671 59.7017 186.667 59.739C186.667 59.7764 186.667 59.8067 186.667 59.83C186.667 60.138 186.723 60.3597 186.835 60.495C186.951 60.6257 187.126 60.691 187.36 60.691C187.542 60.691 187.728 60.642 187.92 60.544C188.116 60.4414 188.302 60.2967 188.48 60.11C188.662 59.9234 188.83 59.697 188.984 59.431C189.138 59.165 189.268 58.8687 189.376 58.542L189.824 54.818H191.553L190.685 62H189.81C189.73 62 189.653 61.9907 189.579 61.972C189.509 61.9487 189.443 61.916 189.383 61.874C189.327 61.832 189.28 61.7784 189.243 61.713C189.21 61.6477 189.194 61.5707 189.194 61.482V61.454L189.236 60.579C188.872 61.0924 188.473 61.475 188.039 61.727C187.609 61.979 187.164 62.105 186.702 62.105C186.436 62.105 186.193 62.0584 185.974 61.965C185.759 61.867 185.575 61.727 185.421 61.545C185.267 61.363 185.148 61.139 185.064 60.873C184.98 60.6024 184.938 60.2944 184.938 59.949C184.938 59.8557 184.94 59.7624 184.945 59.669C184.949 59.5757 184.959 59.4777 184.973 59.375L185.512 54.818H187.241Z" fill="#009E77"/>
<path d="M192.961 62L193.822 54.811H194.704C194.886 54.811 195.026 54.8554 195.124 54.944C195.227 55.0327 195.278 55.175 195.278 55.371L195.229 56.302C195.593 55.7654 195.997 55.3664 196.44 55.105C196.884 54.839 197.341 54.706 197.812 54.706C198.078 54.706 198.319 54.755 198.533 54.853C198.753 54.9464 198.939 55.0864 199.093 55.273C199.247 55.455 199.366 55.6814 199.45 55.952C199.534 56.218 199.576 56.526 199.576 56.876C199.576 56.9647 199.572 57.0557 199.562 57.149C199.558 57.2377 199.551 57.331 199.541 57.429L199.002 62H197.273C197.367 61.2114 197.446 60.544 197.511 59.998C197.577 59.4474 197.63 58.99 197.672 58.626C197.714 58.262 197.747 57.9774 197.77 57.772C197.794 57.562 197.81 57.4034 197.819 57.296C197.833 57.1887 197.84 57.1187 197.84 57.086C197.845 57.0487 197.847 57.0184 197.847 56.995C197.847 56.687 197.791 56.4654 197.679 56.33C197.567 56.19 197.392 56.12 197.154 56.12C196.963 56.12 196.765 56.176 196.559 56.288C196.354 56.4 196.158 56.5587 195.971 56.764C195.785 56.9694 195.614 57.2167 195.46 57.506C195.306 57.7954 195.18 58.1174 195.082 58.472L194.69 62H192.961Z" fill="#009E77"/>
<path d="M203.918 54.818L203.057 62H201.349L202.21 54.818H203.918ZM204.352 52.725C204.352 52.8744 204.319 53.0144 204.254 53.145C204.193 53.2757 204.111 53.39 204.008 53.488C203.91 53.586 203.796 53.6654 203.666 53.726C203.535 53.782 203.4 53.81 203.26 53.81C203.124 53.81 202.991 53.782 202.861 53.726C202.734 53.6654 202.623 53.586 202.525 53.488C202.426 53.39 202.347 53.2757 202.286 53.145C202.23 53.0144 202.202 52.8744 202.202 52.725C202.202 52.5757 202.233 52.4334 202.294 52.298C202.354 52.1627 202.434 52.046 202.532 51.948C202.63 51.8454 202.742 51.766 202.868 51.71C202.998 51.6494 203.131 51.619 203.267 51.619C203.407 51.619 203.542 51.6494 203.673 51.71C203.803 51.766 203.917 51.843 204.016 51.941C204.118 52.039 204.2 52.1557 204.26 52.291C204.321 52.4264 204.352 52.571 204.352 52.725Z" fill="#009E77"/>
<path d="M206.169 60.537C206.169 60.5044 206.169 60.467 206.169 60.425C206.169 60.3784 206.171 60.313 206.176 60.229C206.185 60.1404 206.197 60.026 206.211 59.886C206.23 59.7414 206.253 59.557 206.281 59.333L206.68 56.113H206.001C205.922 56.113 205.856 56.0897 205.805 56.043C205.758 55.9917 205.735 55.917 205.735 55.819C205.735 55.8144 205.735 55.805 205.735 55.791C205.74 55.777 205.744 55.7467 205.749 55.7C205.754 55.6487 205.761 55.574 205.77 55.476C205.784 55.378 205.8 55.2404 205.819 55.063L206.911 54.874L207.485 52.914C207.513 52.8207 207.56 52.7484 207.625 52.697C207.695 52.6457 207.779 52.62 207.877 52.62H208.801L208.521 54.881H210.257L210.11 56.113H208.367L207.982 59.242C207.959 59.4334 207.94 59.585 207.926 59.697C207.917 59.809 207.907 59.8977 207.898 59.963C207.893 60.0237 207.889 60.068 207.884 60.096C207.884 60.1194 207.884 60.1357 207.884 60.145C207.884 60.3224 207.926 60.4624 208.01 60.565C208.099 60.6677 208.222 60.719 208.381 60.719C208.479 60.719 208.563 60.7074 208.633 60.684C208.703 60.656 208.764 60.628 208.815 60.6C208.866 60.572 208.911 60.5464 208.948 60.523C208.99 60.495 209.03 60.481 209.067 60.481C209.118 60.481 209.158 60.495 209.186 60.523C209.219 60.5464 209.247 60.5837 209.27 60.635L209.641 61.475C209.384 61.685 209.1 61.8437 208.787 61.951C208.474 62.0584 208.159 62.112 207.842 62.112C207.333 62.112 206.93 61.9744 206.631 61.699C206.337 61.4237 206.183 61.0364 206.169 60.537Z" fill="#009E77"/>
<path d="M213.89 54.818L213.029 62H211.321L212.182 54.818H213.89ZM214.324 52.725C214.324 52.8744 214.291 53.0144 214.226 53.145C214.165 53.2757 214.083 53.39 213.981 53.488C213.883 53.586 213.768 53.6654 213.638 53.726C213.507 53.782 213.372 53.81 213.232 53.81C213.096 53.81 212.963 53.782 212.833 53.726C212.707 53.6654 212.595 53.586 212.497 53.488C212.399 53.39 212.319 53.2757 212.259 53.145C212.203 53.0144 212.175 52.8744 212.175 52.725C212.175 52.5757 212.205 52.4334 212.266 52.298C212.326 52.1627 212.406 52.046 212.504 51.948C212.602 51.8454 212.714 51.766 212.84 51.71C212.97 51.6494 213.103 51.619 213.239 51.619C213.379 51.619 213.514 51.6494 213.645 51.71C213.775 51.766 213.89 51.843 213.988 51.941C214.09 52.039 214.172 52.1557 214.233 52.291C214.293 52.4264 214.324 52.571 214.324 52.725Z" fill="#009E77"/>
<path d="M221.538 56.484C221.538 56.806 221.473 57.1 221.342 57.366C221.216 57.632 220.987 57.87 220.656 58.08C220.325 58.29 219.874 58.472 219.305 58.626C218.74 58.7754 218.019 58.8944 217.142 58.983V59.074C217.142 60.2034 217.62 60.768 218.577 60.768C218.782 60.768 218.964 60.7494 219.123 60.712C219.282 60.67 219.419 60.621 219.536 60.565C219.657 60.509 219.765 60.446 219.858 60.376C219.956 60.306 220.045 60.243 220.124 60.187C220.208 60.131 220.29 60.0844 220.369 60.047C220.448 60.005 220.535 59.984 220.628 59.984C220.684 59.984 220.74 59.998 220.796 60.026C220.852 60.0494 220.899 60.0867 220.936 60.138L221.377 60.67C221.13 60.9174 220.887 61.132 220.649 61.314C220.411 61.496 220.168 61.6454 219.921 61.762C219.674 61.8787 219.412 61.965 219.137 62.021C218.862 62.077 218.561 62.105 218.234 62.105C217.814 62.105 217.434 62.035 217.093 61.895C216.752 61.7504 216.461 61.5497 216.218 61.293C215.975 61.0317 215.786 60.719 215.651 60.355C215.52 59.9864 215.455 59.5757 215.455 59.123C215.455 58.745 215.495 58.374 215.574 58.01C215.658 57.646 215.777 57.3007 215.931 56.974C216.085 56.6474 216.274 56.3464 216.498 56.071C216.722 55.7957 216.974 55.5577 217.254 55.357C217.539 55.1564 217.849 55 218.185 54.888C218.526 54.776 218.89 54.72 219.277 54.72C219.655 54.72 219.984 54.7737 220.264 54.881C220.549 54.9884 220.784 55.1284 220.971 55.301C221.162 55.469 221.305 55.658 221.398 55.868C221.491 56.078 221.538 56.2834 221.538 56.484ZM219.179 55.924C218.946 55.924 218.729 55.973 218.528 56.071C218.327 56.1644 218.145 56.2974 217.982 56.47C217.823 56.6427 217.683 56.8504 217.562 57.093C217.445 57.331 217.352 57.5924 217.282 57.877C217.861 57.7977 218.325 57.7114 218.675 57.618C219.03 57.5247 219.303 57.422 219.494 57.31C219.69 57.198 219.818 57.079 219.879 56.953C219.944 56.827 219.977 56.6917 219.977 56.547C219.977 56.477 219.961 56.4047 219.928 56.33C219.9 56.2554 219.853 56.19 219.788 56.134C219.727 56.0734 219.646 56.0244 219.543 55.987C219.445 55.945 219.324 55.924 219.179 55.924Z" fill="#009E77"/>
<path d="M227.56 56.169C227.509 56.2437 227.46 56.2974 227.413 56.33C227.367 56.358 227.306 56.372 227.231 56.372C227.152 56.372 227.07 56.3487 226.986 56.302C226.902 56.2554 226.804 56.204 226.692 56.148C226.585 56.0874 226.459 56.0337 226.314 55.987C226.174 55.9404 226.004 55.917 225.803 55.917C225.435 55.917 225.152 56.001 224.956 56.169C224.76 56.3324 224.662 56.5377 224.662 56.785C224.662 56.9297 224.702 57.0534 224.781 57.156C224.865 57.254 224.973 57.3404 225.103 57.415C225.234 57.4897 225.383 57.5597 225.551 57.625C225.719 57.6857 225.892 57.7534 226.069 57.828C226.247 57.898 226.419 57.9797 226.587 58.073C226.755 58.1617 226.905 58.2714 227.035 58.402C227.166 58.5327 227.271 58.6914 227.35 58.878C227.434 59.06 227.476 59.2794 227.476 59.536C227.476 59.8814 227.406 60.2104 227.266 60.523C227.131 60.8357 226.935 61.111 226.678 61.349C226.422 61.5824 226.111 61.769 225.747 61.909C225.383 62.0444 224.977 62.112 224.529 62.112C224.301 62.112 224.079 62.0887 223.864 62.042C223.654 62 223.456 61.9394 223.269 61.86C223.083 61.7807 222.912 61.6874 222.758 61.58C222.609 61.4727 222.481 61.356 222.373 61.23L222.793 60.572C222.845 60.4927 222.905 60.432 222.975 60.39C223.05 60.348 223.136 60.327 223.234 60.327C223.332 60.327 223.421 60.3574 223.5 60.418C223.58 60.4787 223.673 60.5464 223.78 60.621C223.888 60.691 224.016 60.7564 224.165 60.817C224.319 60.8777 224.515 60.908 224.753 60.908C224.945 60.908 225.113 60.8824 225.257 60.831C225.407 60.7797 225.53 60.7097 225.628 60.621C225.731 60.5324 225.808 60.4297 225.859 60.313C225.911 60.1964 225.936 60.0727 225.936 59.942C225.936 59.7834 225.897 59.6527 225.817 59.55C225.738 59.4427 225.631 59.3517 225.495 59.277C225.365 59.1977 225.215 59.13 225.047 59.074C224.879 59.0134 224.707 58.9504 224.529 58.885C224.357 58.8197 224.186 58.745 224.018 58.661C223.855 58.577 223.706 58.472 223.57 58.346C223.44 58.2154 223.335 58.059 223.255 57.877C223.176 57.6904 223.136 57.464 223.136 57.198C223.136 56.8807 223.197 56.5727 223.318 56.274C223.44 55.9707 223.617 55.7047 223.85 55.476C224.088 55.2427 224.378 55.056 224.718 54.916C225.064 54.776 225.458 54.706 225.901 54.706C226.359 54.706 226.762 54.7854 227.112 54.944C227.467 55.098 227.766 55.2964 228.008 55.539L227.56 56.169Z" fill="#009E77"/>
<path d="M61.6 16.3H39V42H57.7V32.2H64.4C74.4 32.2 85.9 30.7 85.9 26.6V21.9C85.9 17.9 78.8 16.3 61.6 16.3ZM60.4 28.3H57.6V20.1H60.4C66.9 20.1 67.2 21.3 67.2 24.2C67.2 27.3 66.7 28.3 60.4 28.3Z" fill="#009E77"/>
<path d="M118 34.8C118 36.8 118 38.3 113.1 38.3C108.4 38.3 108.4 36.8 108.4 34.8V16.3H89.7002V34.1C89.7002 37 89.7002 42.6 113 42.6C129.7 42.6 136.1 40.5 136.6 34.7V16.3H118V34.8Z" fill="#009E77"/>
<path d="M161.2 16.3H142.1V42H161.2C184.4 42 189 39.1 189 34.2V25.1C189 17.5 182.4 16.3 161.2 16.3ZM170.3 34.7C170.3 37 169.9 38.1 160.7 38.2V20.1C169.9 20.1 170.3 20.9 170.3 24.2V34.7Z" fill="#009E77"/>
<path d="M97.7001 8.59995H99.8001C100.1 8.59995 100.4 8.59995 100.4 8.19995V4.99995H105.4V8.19995C105.4 8.59995 105.8 8.59995 106 8.59995H108.1C108.3 8.59995 108.7 8.59995 108.7 8.19995V0.699951C108.7 0.299951 108.4 0.299951 108.1 0.299951H106C105.6 0.299951 105.4 0.399951 105.4 0.699951V3.59995H100.4V0.599951C100.4 0.199951 100 0.199951 99.8001 0.199951H97.7001C97.5001 0.199951 97.1001 0.199951 97.1001 0.599951V8.09995C97.1001 8.59995 97.5001 8.59995 97.7001 8.59995Z" fill="#009E77"/>
<path d="M146.5 8.60005H148.5C148.7 8.60005 149.1 8.60005 149.1 8.20005V0.700049C149.1 0.300049 148.7 0.300049 148.5 0.300049H146.4C146 0.300049 145.8 0.400049 145.8 0.700049V8.20005C145.9 8.60005 146.3 8.60005 146.5 8.60005Z" fill="#009E77"/>
<path d="M175.3 0.299951H173.2C172.8 0.299951 172.6 0.399951 172.6 0.699951V3.59995H167.6V0.599951C167.6 0.199951 167.2 0.199951 167 0.199951H164.9C164.7 0.199951 164.3 0.199951 164.3 0.599951V8.09995C164.3 8.49995 164.7 8.49995 164.9 8.49995H167C167.3 8.49995 167.6 8.49995 167.6 8.09995V4.99995H172.6V8.19995C172.6 8.59995 173 8.59995 173.2 8.59995H175.3C175.6 8.59995 175.9 8.59995 175.9 8.19995V0.699951C176 0.299951 175.6 0.299951 175.3 0.299951Z" fill="#009E77"/>
<path d="M95 4.19998C94.8 2.19998 92.5 0.0999756 87.8 0.0999756C83.4 0.0999756 80.5 1.89998 80.5 4.49998C80.5 7.49998 84.2 8.79998 87.8 8.79998C90.5 8.79998 92.8 7.99998 94.1 6.79998C94.7 5.99998 95.1 5.19998 95 4.19998ZM90.7 6.39998C89.7 7.29998 88.3 7.29998 87.8 7.29998C87.1 7.29998 84.8 7.19998 84.2 5.39998C84 5.09998 84 4.69998 84 4.29998C84 2.89998 84.7 1.99998 86.2 1.59998C86.6 1.49998 87.2 1.39998 87.8 1.39998C89.3 1.39998 90.2 1.89998 90.6 2.19998C91.4 2.89998 91.5 3.69998 91.5 4.19998C91.5 5.19998 91.2 5.89998 90.7 6.39998Z" fill="#009E77"/>
<path d="M157 7.5C155.5 7.5 155 6.9 154.7 6.6C154.4 6.3 153.9 5.9 153 5.9C152.4 5.9 151.5 6.1 151.5 6.8C151.5 7.6 153.2 8.8 156.8 8.8C160 8.8 162.1 7.8 162.1 6.3C162.1 4.7 159.9 4.1 158.4 3.7L157.3 3.4C156 3.1 154.8 2.8 154.8 2.1C154.8 1.6 155.6 1.3 156.5 1.3C157.6 1.3 158.2 1.7 158.5 2C158.8 2.3 159.1 2.5 160 2.5C160.8 2.5 161.4 2.1 161.4 1.7C161.4 0.9 159.6 0 156.5 0C153.5 0 151.6 1 151.6 2.4C151.6 3.9 153.8 4.5 154.7 4.8L155.9 5.1C157.6 5.6 158.7 5.9 158.7 6.5C158.9 7.1 158 7.5 157 7.5Z" fill="#009E77"/>
<path d="M139.7 8.20005C139.7 8.60005 140 8.60005 140.3 8.60005H142.1C142.5 8.60005 142.8 8.60005 142.8 8.20005V0.700049C142.8 0.300049 142.5 0.300049 142.2 0.300049H140C139.5 0.300049 139.4 0.300049 139.2 0.600049L135.2 5.60005L131 0.600049C130.8 0.300049 130.7 0.300049 130.2 0.300049H128.1C127.9 0.300049 127.5 0.300049 127.5 0.700049V8.20005C127.5 8.60005 127.9 8.60005 128.1 8.60005H129.4C129.6 8.60005 130 8.60005 130 8.20005V3.20005L134.1 8.30005C134.3 8.50005 134.5 8.60005 134.9 8.60005C135.3 8.60005 135.4 8.50005 135.6 8.30005L139.7 3.20005V8.20005Z" fill="#009E77"/>
<path d="M118.2 8.79995C120.9 8.79995 123.2 7.99995 124.5 6.79995C125.2 6.09995 125.5 5.19995 125.5 4.29995C125.3 2.29995 123 0.199951 118.3 0.199951C113.9 0.199951 111 1.99995 111 4.59995C110.9 7.49995 114.5 8.79995 118.2 8.79995ZM116.5 1.59995C116.9 1.49995 117.6 1.39995 118.1 1.39995C119.6 1.39995 120.5 1.89995 120.9 2.19995C121.7 2.89995 121.8 3.69995 121.8 4.19995C121.8 5.09995 121.6 5.89995 121 6.39995C120 7.29995 118.6 7.29995 118.1 7.29995C117.4 7.29995 115.1 7.19995 114.5 5.39995C114.4 5.09995 114.3 4.69995 114.3 4.29995C114.4 2.99995 115.1 1.99995 116.5 1.59995Z" fill="#009E77"/>
<path d="M66.3998 8.60005H67.7998C68.0998 8.60005 68.3998 8.60005 68.3998 8.20005V3.10005L75.7998 8.40005C76.0998 8.60005 76.1998 8.60005 76.4998 8.70005H77.6998C77.8998 8.70005 78.2998 8.70005 78.2998 8.30005V0.700049C78.2998 0.700049 78.2998 0.500049 78.1998 0.400049C78.0998 0.300049 77.8998 0.300049 77.6998 0.300049H76.2998C76.0998 0.300049 75.6998 0.300049 75.6998 0.700049V5.40005L68.8998 0.500049C68.5998 0.300049 68.4998 0.300049 68.0998 0.300049H66.3998C66.1998 0.300049 65.7998 0.300049 65.7998 0.700049V8.20005C65.6998 8.60005 66.0998 8.60005 66.3998 8.60005Z" fill="#009E77"/>
<path d="M58.3999 7.5C56.8999 7.5 56.3999 6.9 56.0999 6.6C55.7999 6.3 55.2999 5.9 54.3999 5.9C53.7999 5.9 52.8999 6.1 52.8999 6.8C52.8999 7.6 54.5999 8.8 58.1999 8.8C61.3999 8.8 63.4999 7.8 63.4999 6.3C63.4999 4.7 61.2999 4.1 59.7999 3.7L58.7999 3.4C57.3999 3 56.2999 2.8 56.2999 2.1C56.2999 1.6 57.0999 1.3 57.9999 1.3C59.0999 1.3 59.6999 1.7 59.9999 2C60.2999 2.3 60.5999 2.5 61.4999 2.5C62.2999 2.5 62.8999 2.1 62.8999 1.7C62.8999 0.9 61.0999 0 57.9999 0C54.9999 0 53.0999 1 53.0999 2.4C53.0999 3.9 55.2999 4.5 56.1999 4.8L57.3999 5.1C59.0999 5.6 60.1999 5.9 60.1999 6.5C60.3999 7.1 59.4999 7.5 58.3999 7.5Z" fill="#009E77"/>
</svg>
