<svg width="157" height="65" viewBox="0 0 157 65" fill="none" xmlns="http://www.w3.org/2000/svg">
<path d="M36.4436 4.9367C35.7678 4.31593 34.8827 4.30127 34.608 4.30127C34.2505 4.30127 33.8756 4.35992 33.5704 4.46257C32.2144 4.9367 32.1621 6.09025 32.1621 6.53016C32.1621 6.85765 32.2013 7.12648 32.2711 7.35133C32.6722 8.68084 34.0936 8.84214 34.6342 8.84214C35.2577 8.84214 36.0163 8.66129 36.5264 8.13339C36.9668 7.65927 37.0801 7.03361 37.0671 6.4715C37.0496 6.04137 36.9668 5.43038 36.4436 4.9367Z" fill="#009E77"/>
<path d="M110.293 4.9367C109.617 4.31593 108.732 4.30127 108.458 4.30127C108.1 4.30127 107.725 4.35992 107.42 4.46257C106.068 4.9367 106.012 6.09025 106.012 6.53016C106.012 6.85765 106.051 7.12648 106.121 7.35133C106.522 8.68084 107.943 8.84214 108.484 8.84214C109.107 8.84214 109.866 8.66129 110.376 8.13339C110.821 7.65927 110.93 7.03361 110.917 6.4715C110.899 6.04137 110.816 5.43038 110.293 4.9367Z" fill="#009E77"/>
<path d="M55.3459 4.9367C54.6701 4.31593 53.7851 4.30127 53.5104 4.30127C53.1529 4.30127 52.7779 4.35992 52.4727 4.46257C51.1168 4.9367 51.0645 6.09025 51.0645 6.53016C51.0645 6.85765 51.1037 7.12648 51.1735 7.35133C51.5746 8.68084 52.9959 8.84214 53.5366 8.84214C54.16 8.84214 54.9187 8.66129 55.4288 8.13339C55.8735 7.65927 55.9825 7.03361 55.9694 6.4715C55.952 6.04137 55.8691 5.43038 55.3459 4.9367Z" fill="#009E77"/>
<path d="M146.382 0.0146644C145.95 0.00977626 145.501 0.00977626 145.022 0H10.116C3.17493 0 0.358398 0.46926 0.358398 12.2985V13.2762H1.23039C2.14162 13.2762 62.4049 13.3202 107.783 13.3202C130.643 13.3202 149.73 13.3104 155.529 13.2762L156.392 13.2713L156.397 12.3034C156.462 0.571911 154.374 0.0733219 146.382 0.0146644ZM16.076 9.6345C13.5909 9.6345 12.5619 8.67643 12.5619 8.14851C12.5619 7.74768 13.0982 7.59615 13.4688 7.59615C14.0835 7.59615 14.3277 7.87478 14.5588 8.11918C14.7593 8.36359 15.1866 8.8524 16.2155 8.8524C17.0439 8.8524 17.6587 8.51023 17.6587 8.00187C17.6587 7.35663 16.8608 7.11223 15.6313 6.73584L14.7855 6.48166C14.2013 6.29102 12.6971 5.81198 12.6971 4.71704C12.6971 3.6221 14.0792 2.95243 15.9801 2.95243C18.0075 2.95243 19.2196 3.64166 19.2196 4.15491C19.2196 4.46286 18.8359 4.67794 18.3432 4.67794C17.8069 4.67794 17.6064 4.47753 17.4058 4.282C17.1442 4.03759 16.7475 3.6661 15.9191 3.6661C15.1386 3.6661 14.5849 4.01804 14.5849 4.47264C14.5849 5.05921 15.3697 5.29384 16.4117 5.59691L17.1311 5.8071C18.099 6.10527 19.6163 6.56964 19.6163 7.77212C19.6207 8.95016 18.086 9.6345 16.076 9.6345ZM28.6632 9.32655C28.6632 9.46342 28.5804 9.48786 28.3711 9.48786H27.5994C27.4337 9.47319 27.3901 9.44875 27.2419 9.31677L22.4895 5.36228V9.307C22.4895 9.43898 22.4459 9.48786 22.2105 9.48786H21.3429C21.1205 9.48786 21.0377 9.47319 21.0377 9.32655V3.90561C21.0377 3.74919 21.1467 3.73453 21.3429 3.73453H22.3936C22.629 3.73453 22.6857 3.74919 22.834 3.88117L27.2419 7.52283V3.90073C27.2419 3.77852 27.2986 3.73942 27.5165 3.73942H28.3885C28.6109 3.72964 28.6632 3.77364 28.6632 3.90073V9.32655ZM34.6146 9.61984C32.2515 9.61984 30.2066 8.59333 30.2066 6.61853C30.2066 4.93212 31.8242 3.59277 34.6407 3.59277C37.3875 3.59277 38.896 4.92235 39.005 6.45233C39.1315 8.28538 37.2654 9.61984 34.6146 9.61984ZM47.568 9.32655C47.568 9.48297 47.459 9.48786 47.2759 9.48786H45.9766C45.7412 9.48786 45.6888 9.45364 45.6888 9.307V6.85316H42.4014V9.31677C42.4014 9.47319 42.3186 9.48786 42.1137 9.48786H40.8275C40.6357 9.48786 40.5223 9.47319 40.5223 9.31677V3.89095C40.5223 3.75897 40.6051 3.72964 40.8275 3.72964H42.1137C42.336 3.72964 42.4014 3.76386 42.4014 3.89095V6.13949H45.6888V3.90561C45.6888 3.78341 45.7019 3.72475 45.9635 3.72475H47.2628C47.4982 3.72475 47.568 3.73942 47.568 3.88606V9.32655ZM53.5193 9.61984C51.1562 9.61984 49.1114 8.59333 49.1114 6.61853C49.1114 4.93212 50.7289 3.59277 53.5455 3.59277C56.2966 3.59277 57.8008 4.92235 57.9098 6.45233C58.0362 8.28538 56.1702 9.61984 53.5193 9.61984ZM68.7748 9.32166C68.7748 9.47808 68.705 9.49275 68.4434 9.49275H67.3404C67.0788 9.49275 67.0352 9.45853 67.0352 9.307V5.41116L64.3146 9.3461C64.2056 9.48297 64.162 9.52696 63.957 9.52696C63.7478 9.52696 63.6649 9.47808 63.569 9.34121L60.8484 5.41116V9.32166C60.8484 9.45853 60.7525 9.49275 60.5606 9.49275H59.7279C59.4925 9.49275 59.4401 9.45364 59.4401 9.307V3.90561C59.4401 3.77364 59.5099 3.73453 59.7279 3.73453H61.0402C61.3018 3.73453 61.3454 3.74919 61.4544 3.90561L64.1358 7.62059L66.7343 3.9105C66.8433 3.75408 66.8869 3.72964 67.1485 3.72964H68.487C68.7094 3.72964 68.7748 3.74431 68.7748 3.88606V9.32166ZM72.7554 9.31188C72.7554 9.4683 72.629 9.49275 72.4502 9.49275H71.164C70.9722 9.48297 70.8588 9.45853 70.8588 9.31188V3.90561C70.8719 3.79319 70.8981 3.73453 71.151 3.73453H72.4633C72.6726 3.73453 72.7554 3.75897 72.7554 3.90561V9.31188ZM77.5034 9.61984C75.2668 9.61984 74.3425 8.75464 74.3425 8.28538C74.3425 7.92854 74.8264 7.78679 75.1578 7.78679C75.7115 7.78679 75.9295 8.04097 76.1388 8.26094C76.3175 8.4809 76.7055 8.92083 77.6299 8.92083C78.3754 8.92083 78.9291 8.61288 78.9291 8.1534C78.9291 7.5766 78.2097 7.35663 77.1067 7.01446L76.348 6.78472C75.8205 6.61364 74.4689 6.18348 74.4689 5.19608C74.4689 4.20868 75.7115 3.60744 77.4249 3.60744C79.2474 3.60744 80.3418 4.22823 80.3418 4.6926C80.3418 4.97123 79.9973 5.16675 79.5526 5.16675C79.0686 5.16675 78.8899 4.98589 78.7111 4.80992C78.4757 4.58995 78.1182 4.25756 77.3726 4.25756C76.6663 4.25756 76.1693 4.57529 76.1693 4.981C76.1693 5.50892 76.8756 5.724 77.813 5.99285L78.4626 6.17859C79.3346 6.44744 80.6993 6.86293 80.6993 7.9481C80.6949 9.00393 79.3128 9.61984 77.5034 9.61984ZM89.3407 9.32655C89.3407 9.48297 89.2317 9.48786 89.0486 9.48786H87.7493C87.5139 9.48786 87.4616 9.45364 87.4616 9.307V6.85316H84.1741V9.31677C84.1741 9.47319 84.0913 9.48786 83.882 9.48786H82.5958C82.404 9.48786 82.2906 9.47319 82.2906 9.31677V3.89095C82.2906 3.75897 82.3735 3.72964 82.5958 3.72964H83.882C84.1044 3.72964 84.1741 3.76386 84.1741 3.89095V6.13949H87.4616V3.90561C87.4616 3.78341 87.4746 3.72475 87.7362 3.72475H89.0355C89.2709 3.72475 89.3407 3.73942 89.3407 3.88606V9.32655ZM102.464 4.80014C102.08 4.80014 101.836 4.70238 101.649 4.52641C101.204 4.13047 100.729 3.69543 99.6258 3.69543C98.2132 3.69543 97.0491 4.50197 97.0491 5.94885C97.0491 7.71347 98.5533 8.70087 100.35 8.70087C101.317 8.70087 101.958 8.42713 102.207 8.32937C102.512 8.20228 102.591 8.16806 102.774 8.16806C103.035 8.16806 103.262 8.28538 103.262 8.46624C103.262 8.85729 102.063 9.6345 99.8395 9.6345C96.3864 9.6345 94.8386 7.99698 94.8386 6.2568C94.8386 4.43842 96.6349 2.95243 99.7959 2.95243C102.037 2.95243 103.388 3.72964 103.388 4.27222C103.384 4.58506 102.97 4.80014 102.464 4.80014ZM108.472 9.61984C106.109 9.61984 104.064 8.59333 104.064 6.61853C104.064 4.93212 105.682 3.59277 108.498 3.59277C111.245 3.59277 112.754 4.92235 112.863 6.45233C112.985 8.28538 111.123 9.61984 108.472 9.61984ZM120.968 7.80145C120.955 8.05564 120.955 8.37825 120.676 8.70576C120.549 8.86218 119.93 9.61984 117.65 9.61984C116.364 9.61984 115.108 9.38521 114.567 8.70576C114.332 8.41247 114.28 8.06052 114.28 7.73791V3.89095C114.28 3.75408 114.349 3.73453 114.541 3.73453H115.897C116.12 3.73453 116.189 3.74431 116.189 3.89095V7.6157C116.202 7.96765 116.246 8.77419 117.859 8.77419C119.459 8.77419 119.477 7.94321 119.477 7.6988V3.90561C119.477 3.75897 119.533 3.73453 119.751 3.73453H120.676C120.885 3.73453 120.968 3.74919 120.968 3.89095V7.80145ZM130.547 9.32655C130.547 9.46342 130.464 9.48786 130.255 9.48786H129.483C129.317 9.47319 129.274 9.44875 129.125 9.31677L124.373 5.36228V9.307C124.373 9.43898 124.329 9.48786 124.098 9.48786H123.226C123.004 9.48786 122.921 9.47319 122.921 9.32655V3.90561C122.921 3.74919 123.03 3.73453 123.226 3.73453H124.277C124.512 3.73453 124.569 3.74919 124.717 3.88117L129.125 7.52283V3.90073C129.125 3.77852 129.182 3.73942 129.4 3.73942H130.272C130.494 3.72964 130.547 3.77364 130.547 3.90073V9.32655ZM138.146 4.282C138.146 4.41398 138.089 4.46286 137.841 4.46286H135.739V9.29722C135.739 9.43409 135.683 9.49275 135.447 9.49275H134.192C133.943 9.48297 133.86 9.45853 133.86 9.29722V4.46286H131.776C131.528 4.46286 131.471 4.41398 131.471 4.282V3.90073C131.471 3.75408 131.567 3.72964 131.776 3.72964H137.841C138.033 3.72964 138.146 3.74431 138.146 3.88606V4.282ZM145.863 3.98871L143.169 6.93137V9.33633C143.169 9.49275 143.042 9.49275 142.863 9.49275H141.525C141.303 9.49275 141.25 9.45853 141.25 9.33633V6.89226L138.613 3.98871C138.53 3.90561 138.504 3.87629 138.504 3.84207C138.504 3.75897 138.613 3.73453 138.752 3.73453H140.23C140.479 3.73453 140.505 3.74919 140.601 3.8714L142.467 5.97329L144.372 3.88606C144.498 3.76386 144.525 3.72964 144.76 3.72964H145.715C145.811 3.72964 145.977 3.72964 145.977 3.8274C145.977 3.87629 145.946 3.90561 145.863 3.98871Z" fill="#009E77"/>
<path d="M21.6275 57.5366C21.4444 57.5366 21.3441 57.5464 21.2002 57.5513V59.6337C21.3528 59.6484 21.5882 59.6679 21.8629 59.6679C22.8003 59.6679 23.4499 59.3746 23.4499 58.6658C23.4499 57.5366 22.046 57.5366 21.6275 57.5366Z" fill="#009E77"/>
<path d="M21.9152 56.9846C23.0357 56.8868 23.1142 56.2269 23.1142 56.0313C23.1142 55.0928 21.985 55.0928 21.7496 55.0928C21.5446 55.0928 21.4226 55.1025 21.2002 55.127V56.9943C21.4662 56.9992 21.6711 56.9992 21.9152 56.9846Z" fill="#009E77"/>
<path d="M80.2373 54.5747C80.0236 54.5747 79.8885 54.5943 79.7402 54.604V59.536C79.8972 59.5458 80.0018 59.5458 80.089 59.5458C81.0613 59.5458 81.9638 59.2721 82.4957 58.7051C82.7878 58.3873 83.0625 57.8546 83.0625 57.048C83.0625 56.09 82.657 55.6012 82.4739 55.391C81.9551 54.8338 81.1093 54.5747 80.2373 54.5747Z" fill="#009E77"/>
<path d="M100.635 55.0928C100.421 55.0928 100.277 55.1074 100.177 55.1172V57.3071C100.552 57.3169 100.674 57.3169 100.839 57.2973C101.45 57.2387 102.082 56.9454 102.082 56.1877C102.078 55.0928 101.031 55.0928 100.635 55.0928Z" fill="#009E77"/>
<path d="M132.189 55.0879C131.923 55.0879 131.649 55.1465 131.426 55.2492C130.428 55.7233 130.389 56.8769 130.389 57.3168C130.389 57.6443 130.419 57.9131 130.467 58.138C130.764 59.4675 131.81 59.6288 132.207 59.6288C132.665 59.6288 133.223 59.4479 133.602 58.92C133.929 58.4459 134.007 57.8202 133.999 57.2581C133.99 56.828 133.929 56.217 133.541 55.7184C133.044 55.1026 132.394 55.0879 132.189 55.0879Z" fill="#009E77"/>
<path d="M9.6784 54.5161C9.42988 54.5161 9.28164 54.5357 9.14648 54.5503V56.9407C9.28164 56.9602 9.42988 56.97 9.60864 56.97C10.3891 56.97 11.3962 56.8184 11.3962 55.7186C11.3962 54.565 10.1754 54.5161 9.6784 54.5161Z" fill="#009E77"/>
<path d="M155.525 51.4414C154.156 51.4414 18.5351 51.3387 1.23044 51.4414L0.367165 51.4463L0.362805 52.4141C0.297405 64.1451 2.38582 64.6437 10.3733 64.7072C10.8049 64.7121 11.254 64.7121 11.7336 64.7219H146.639C153.58 64.7219 156.397 64.2527 156.397 52.4238V51.4463L155.525 51.4414ZM9.79339 57.6882C9.55795 57.6882 9.43151 57.6784 9.13939 57.6588V60.0832C9.13939 60.2543 9.06092 60.2739 8.89088 60.2739H7.84885C7.63521 60.2641 7.60033 60.2201 7.60033 60.0735V54.2275C7.60033 54.0564 7.62213 54.0027 7.77909 53.9538C8.02761 53.8805 8.99116 53.8071 9.75851 53.8071C10.4605 53.8071 12.9587 53.8071 12.9587 55.7085C12.9587 57.1163 11.5112 57.6882 9.79339 57.6882ZM18.5177 58.5875C18.5089 58.8417 18.5089 59.1643 18.304 59.4918C18.2125 59.6482 17.7547 60.4059 16.0761 60.4059C15.13 60.4059 14.2057 60.1712 13.8089 59.4918C13.6345 59.1985 13.5953 58.8466 13.5953 58.524V54.6772C13.5953 54.5403 13.6476 54.5208 13.7871 54.5208H14.7855C14.9469 54.5208 14.9992 54.5305 14.9992 54.6772V58.4018C15.0079 58.7537 15.0384 59.5602 16.2287 59.5602C17.4102 59.5602 17.419 58.7293 17.419 58.4849V54.6967C17.419 54.5501 17.4582 54.5257 17.6239 54.5257H18.304C18.4566 54.5257 18.5177 54.5403 18.5177 54.6821V58.5875ZM23.7147 60.0979C23.2439 60.2543 22.6465 60.3325 21.6786 60.3325C20.9156 60.3325 20.2442 60.269 20.0698 60.225C19.8867 60.1859 19.8474 60.137 19.8474 59.9219V54.8483C19.8474 54.6772 19.8867 54.6185 20.0524 54.5697C20.2965 54.5061 21.09 54.4572 21.6786 54.4572C22.4329 54.4572 23.1741 54.5159 23.7016 54.7749C24.2423 55.034 24.4734 55.4348 24.4734 55.865C24.4734 56.6079 23.7714 56.9745 23.3834 57.126C23.3005 57.1505 23.2308 57.1749 23.1479 57.1994C23.2308 57.214 23.3005 57.2238 23.3703 57.2385C24.4167 57.4584 24.857 58.0841 24.857 58.7293C24.8614 59.4136 24.3731 59.8584 23.7147 60.0979ZM29.8056 60.1126C29.7969 60.2494 29.7533 60.2739 29.5832 60.2739H26.104C25.9732 60.2739 25.8991 60.2592 25.8991 60.1126V54.687C25.8991 54.5501 25.9601 54.5257 26.1127 54.5257H27.0588C27.2201 54.5257 27.2725 54.5501 27.2725 54.687V59.526H29.6007C29.7751 59.526 29.8056 59.5602 29.8056 59.6873V60.1126ZM32.064 60.0979C32.064 60.2543 31.9725 60.2788 31.8417 60.2788H30.8956C30.7517 60.269 30.6732 60.2445 30.6732 60.0979V54.6967C30.6819 54.5843 30.7037 54.5257 30.8869 54.5257H31.8548C32.0074 54.5257 32.0684 54.5501 32.0684 54.6967V60.0979H32.064ZM36.7641 59.5651C37.405 59.5651 37.8323 59.3207 37.9936 59.2327C38.1985 59.1203 38.2465 59.0861 38.3685 59.0861C38.5429 59.0861 38.6955 59.1936 38.6955 59.3549C38.6955 59.7069 37.902 60.4059 36.4284 60.4059C34.1394 60.4059 33.1104 58.9297 33.1104 57.3656C33.1104 55.7281 34.3007 54.3937 36.3978 54.3937C37.8846 54.3937 38.7784 55.0927 38.7784 55.5815C38.7784 55.8601 38.5037 56.0556 38.168 56.0556C37.9151 56.0556 37.7494 55.9676 37.6273 55.8112C37.3309 55.4544 37.0169 55.0633 36.2845 55.0633C35.3471 55.0633 34.5754 55.7868 34.5754 57.0918C34.5754 58.6804 35.5694 59.5651 36.7641 59.5651ZM47.9997 58.4018C47.9866 58.6804 47.9866 59.0421 47.7642 59.4087C47.6596 59.5798 47.1538 60.4205 45.2878 60.4205C44.237 60.4205 43.2081 60.1566 42.7677 59.4087C42.5759 59.0812 42.5323 58.6951 42.5323 58.3334V54.0613C42.5323 53.9098 42.589 53.8902 42.7459 53.8902H43.8534C44.0365 53.8902 44.0888 53.9 44.0888 54.0613V58.1965C44.1019 58.5875 44.1324 59.482 45.4578 59.482C46.7702 59.482 46.7789 58.5582 46.7789 58.2894V54.0809C46.7789 53.9196 46.8225 53.8902 47.0056 53.8902H47.7642C47.9343 53.8902 47.9997 53.9098 47.9997 54.0613V58.4018ZM53.5586 55.0682C53.5586 55.2002 53.5194 55.2491 53.3363 55.2491H51.7885V60.0784C51.7885 60.2152 51.7492 60.2739 51.5748 60.2739H50.6505C50.4674 60.2641 50.4064 60.2397 50.4064 60.0784V55.2491H48.8717C48.6885 55.2491 48.6493 55.2002 48.6493 55.0682V54.687C48.6493 54.5403 48.7191 54.5159 48.8717 54.5159H53.3363C53.4801 54.5159 53.5586 54.5305 53.5586 54.6723V55.0682ZM55.6165 60.0979C55.6165 60.2543 55.525 60.2788 55.3942 60.2788H54.4481C54.3042 60.269 54.2257 60.2445 54.2257 60.0979V54.6967C54.2344 54.5843 54.2562 54.5257 54.4393 54.5257H55.4072C55.5598 54.5257 55.6209 54.5501 55.6209 54.6967V60.0979H55.6165ZM60.9226 60.1126C60.9139 60.2494 60.8703 60.2739 60.7002 60.2739H57.221C57.0902 60.2739 57.0161 60.2592 57.0161 60.1126V54.687C57.0161 54.5501 57.0771 54.5257 57.2297 54.5257H58.1758C58.3371 54.5257 58.3895 54.5501 58.3895 54.687V59.526H60.7177C60.8921 59.526 60.9226 59.5602 60.9226 59.6873V60.1126ZM63.181 60.0979C63.181 60.2543 63.0895 60.2788 62.9587 60.2788H62.0126C61.8687 60.269 61.7902 60.2445 61.7902 60.0979V54.6967C61.7989 54.5843 61.8207 54.5257 62.0039 54.5257H62.9718C63.1244 54.5257 63.1854 54.5501 63.1854 54.6967V60.0979H63.181ZM68.7574 55.0682C68.7574 55.2002 68.7182 55.2491 68.5351 55.2491H66.9873V60.0784C66.9873 60.2152 66.9481 60.2739 66.7737 60.2739H65.8493C65.6662 60.2641 65.6052 60.2397 65.6052 60.0784V55.2491H64.0705C63.8874 55.2491 63.8481 55.2002 63.8481 55.0682V54.687C63.8481 54.5403 63.9179 54.5159 64.0705 54.5159H68.5394C68.6833 54.5159 68.7618 54.5305 68.7618 54.6723V55.0682H68.7574ZM74.3861 54.7749L72.4024 57.7175V60.1223C72.4024 60.2788 72.3108 60.2788 72.18 60.2788H71.1946C71.0333 60.2788 70.9897 60.2445 70.9897 60.1223V57.6784L69.0452 54.7798C68.9841 54.6967 68.9623 54.6674 68.9623 54.6332C68.9623 54.5501 69.0452 54.5257 69.1455 54.5257H70.2355C70.4186 54.5257 70.4404 54.5403 70.5101 54.6625L71.8835 56.7643L73.2874 54.6772C73.379 54.555 73.3964 54.5208 73.5708 54.5208H74.2728C74.3425 54.5208 74.4646 54.5208 74.4646 54.6185C74.4646 54.6625 74.4428 54.6967 74.3861 54.7749ZM83.6118 59.3598C82.6962 60.1028 81.349 60.3472 80.0497 60.3472C79.5876 60.3472 78.7374 60.3179 78.4235 60.2299C78.2534 60.1957 78.2098 60.1321 78.1967 59.9513V54.2568C78.1967 54.0466 78.2883 54.0124 78.3886 53.9831C78.6807 53.8902 79.5745 53.812 80.3113 53.812C80.9784 53.812 82.3692 53.856 83.4418 54.6381C83.8472 54.9265 84.6843 55.6694 84.6843 57.0821C84.6887 58.392 83.9301 59.1008 83.6118 59.3598ZM87.0605 60.0979C87.0605 60.2543 86.969 60.2788 86.8382 60.2788H85.8877C85.7438 60.269 85.6653 60.2445 85.6653 60.0979V54.6967C85.6741 54.5843 85.6959 54.5257 85.879 54.5257H86.8469C86.9995 54.5257 87.0605 54.5501 87.0605 54.6967V60.0979ZM90.4962 60.4059C88.8481 60.4059 88.1679 59.5407 88.1679 59.0714C88.1679 58.7146 88.5255 58.5729 88.7696 58.5729C89.1751 58.5729 89.3408 58.827 89.4934 59.047C89.6242 59.267 89.9119 59.7069 90.5921 59.7069C91.1414 59.7069 91.5469 59.3989 91.5469 58.9395C91.5469 58.3627 91.0194 58.1427 90.204 57.8006L89.646 57.5708C89.2579 57.3998 88.2639 56.9696 88.2639 55.9823C88.2639 54.9949 89.1795 54.3937 90.4395 54.3937C91.7824 54.3937 92.5846 55.0145 92.5846 55.4788C92.5846 55.7574 92.3317 55.9529 92.0047 55.9529C91.6472 55.9529 91.5164 55.7721 91.3856 55.5961C91.2112 55.3762 90.9496 55.0438 90.3959 55.0438C89.8771 55.0438 89.5108 55.3615 89.5108 55.7672C89.5108 56.2951 90.0296 56.5102 90.7229 56.779L91.2025 56.9647C91.8434 57.2336 92.8505 57.6491 92.8505 58.7342C92.8462 59.7851 91.8303 60.4059 90.4962 60.4059ZM98.161 55.0682C98.161 55.2002 98.1217 55.2491 97.9386 55.2491H96.3908V60.0784C96.3908 60.2152 96.3516 60.2739 96.1772 60.2739H95.2529C95.0698 60.2641 95.0087 60.2397 95.0087 60.0784V55.2491H93.474C93.2909 55.2491 93.2517 55.2002 93.2517 55.0682V54.687C93.2517 54.5403 93.3214 54.5159 93.474 54.5159H97.9386C98.0825 54.5159 98.161 54.5305 98.161 54.6723V55.0682ZM103.646 60.2739H102.617C102.403 60.2641 102.381 60.2494 102.281 60.1126L100.755 58.0254C100.703 57.9521 100.594 57.8152 100.389 57.8152C100.175 57.8152 100.175 57.9521 100.175 58.0254V60.0784C100.175 60.225 100.136 60.2739 99.9398 60.2739H99.0548C98.9109 60.2739 98.8324 60.2592 98.8324 60.1028V54.8483C98.8324 54.6625 98.8629 54.6185 99.0068 54.5794C99.2292 54.5159 100.023 54.4572 100.685 54.4572C101.287 54.4572 102.181 54.4817 102.791 54.8727C103.24 55.166 103.454 55.6157 103.454 56.0702C103.454 56.9647 102.578 57.4291 101.867 57.6099L103.768 60.005C103.807 60.0539 103.851 60.1126 103.851 60.1615C103.846 60.2739 103.716 60.2739 103.646 60.2739ZM106.057 60.0979C106.057 60.2543 105.965 60.2788 105.834 60.2788H104.888C104.744 60.269 104.666 60.2445 104.666 60.0979V54.6967C104.675 54.5843 104.697 54.5257 104.88 54.5257H105.848C106 54.5257 106.061 54.5501 106.061 54.6967V60.0979H106.057ZM110.753 59.5651C111.393 59.5651 111.821 59.3207 111.982 59.2327C112.187 59.1203 112.235 59.0861 112.361 59.0861C112.536 59.0861 112.688 59.1936 112.688 59.3549C112.688 59.7069 111.895 60.4059 110.421 60.4059C108.132 60.4059 107.103 58.9297 107.103 57.3656C107.103 55.7281 108.294 54.3937 110.391 54.3937C111.877 54.3937 112.771 55.0927 112.771 55.5815C112.771 55.8601 112.497 56.0556 112.161 56.0556C111.904 56.0556 111.742 55.9676 111.62 55.8112C111.324 55.4544 111.01 55.0633 110.277 55.0633C109.34 55.0633 108.568 55.7868 108.568 57.0918C108.568 58.6804 109.562 59.5651 110.753 59.5651ZM117.898 55.0682C117.898 55.2002 117.859 55.2491 117.676 55.2491H116.128V60.0784C116.128 60.2152 116.089 60.2739 115.915 60.2739H114.99C114.807 60.2641 114.746 60.2397 114.746 60.0784V55.2491H113.207C113.024 55.2491 112.985 55.2002 112.985 55.0682V54.687C112.985 54.5403 113.055 54.5159 113.207 54.5159H117.672C117.816 54.5159 117.894 54.5305 117.894 54.6723V55.0682H117.898ZM127.931 60.093C127.931 60.2494 127.861 60.2739 127.691 60.2739H127.059C126.924 60.2543 126.889 60.2299 126.767 60.0832L122.878 55.6939V60.0735C122.878 60.2201 122.843 60.2739 122.651 60.2739H121.94C121.757 60.2739 121.692 60.2543 121.692 60.093V54.0711C121.692 53.9 121.783 53.8805 121.94 53.8805H122.799C122.991 53.8805 123.035 53.9 123.161 54.0418L126.767 58.089V54.0613C126.767 53.9244 126.81 53.8805 126.993 53.8805H127.704C127.883 53.8707 127.931 53.9147 127.931 54.0613V60.093ZM132.199 60.4059C130.46 60.4059 128.955 59.3794 128.955 57.4095C128.955 55.7232 130.146 54.3888 132.221 54.3888C134.244 54.3888 135.356 55.7183 135.434 57.2482C135.526 59.0714 134.152 60.4059 132.199 60.4059ZM137.204 60.3276C136.742 60.3276 136.367 60.0393 136.367 59.6482C136.367 59.2034 136.829 58.9786 137.191 58.9786C137.645 58.9786 138.037 59.2767 138.028 59.6775C138.02 60.0393 137.667 60.3276 137.204 60.3276ZM145.924 60.0832C145.924 60.2445 145.846 60.2739 145.676 60.2739H144.782C144.59 60.2739 144.52 60.2397 144.52 60.0637V55.3028C144.124 55.4104 143.051 55.6939 142.589 55.6939C142.249 55.6939 142.149 55.5228 142.149 55.4055C142.149 55.1953 142.384 55.1318 142.489 55.1171C143.552 54.8727 144.198 54.6625 145 54.0857C145.235 53.9049 145.375 53.8071 145.575 53.8071C145.916 53.8071 145.924 54.0418 145.924 54.1493V60.0832Z" fill="#009E77"/>
<path fill-rule="evenodd" clip-rule="evenodd" d="M19.4216 21.0816H22.4474C29.1966 21.0816 29.6587 22.5187 29.6587 26.17C29.6587 29.8213 29.1922 31.2144 22.4474 31.2144H19.4216V21.0816ZM19.4216 47.5989V35.6429H26.5152C37.9165 35.6429 48.969 33.5997 48.969 28.9464V23.2959C48.969 17.9484 39.0806 16.6433 23.7248 16.6433H0.111328V47.5989H19.4216Z" fill="#009E77"/>
<path d="M19.5282 47.7219H0V16.5217H23.7225C41.7291 16.5217 49.0756 18.4818 49.0756 23.2965V28.9471C49.0756 33.9768 36.9201 35.7658 26.5129 35.7658H19.5282V47.7219ZM0.217998 47.4775H19.3102V35.5214H26.5129C37.6351 35.5214 48.8576 33.488 48.8576 28.9471V23.2965C48.8576 17.558 36.7762 16.7661 23.7225 16.7661H0.217998V47.4775ZM22.445 31.3324H19.3102V20.96H22.445C29.1376 20.96 29.7654 22.3873 29.7654 26.1707C29.7654 29.9931 29.1681 31.3324 22.445 31.3324ZM19.5282 31.088H22.445C28.9981 31.088 29.5474 29.8856 29.5474 26.1658C29.5474 22.7246 29.2597 21.1996 22.445 21.1996H19.5282V31.088Z" fill="#009E77"/>
<path fill-rule="evenodd" clip-rule="evenodd" d="M102.116 16.6433H82.8062V38.9471C82.8062 41.4253 82.8062 43.2534 77.5699 43.2534C72.569 43.2534 72.569 41.4253 72.569 38.9471V16.6433H53.2588V38.077C53.2588 41.9874 53.7253 48.2049 77.5742 48.2049C95.607 48.2049 101.654 45.3357 102.121 38.7711V16.6433H102.116Z" fill="#009E77"/>
<path d="M77.5768 48.3329C53.1523 48.3329 53.1523 41.6656 53.1523 38.0827V16.5217H72.6806V38.9479C72.6806 41.3772 72.6806 43.132 77.5724 43.132C82.6998 43.132 82.6998 41.3772 82.6998 38.9479V16.5217H102.228V38.7719C101.74 45.7422 95.0559 48.3329 77.5768 48.3329ZM53.3747 16.7661V38.0778C53.3747 41.5776 53.3747 48.0836 77.5812 48.0836C94.912 48.0836 101.539 45.5565 102.019 38.7621V16.7661H82.9265V38.9479C82.9265 41.4212 82.9265 43.3764 77.5812 43.3764C72.4713 43.3764 72.4713 41.4212 72.4713 38.9479V16.7661H53.3747Z" fill="#009E77"/>
<path fill-rule="evenodd" clip-rule="evenodd" d="M108.024 47.5999H127.919C152.234 47.5999 156.886 44.1196 156.886 38.254V27.2119C156.886 17.954 149.557 16.6489 127.919 16.6489H108.024V47.5999ZM127.335 21.0824C137.105 21.0824 137.572 21.9964 137.572 26.1268V38.8601C137.572 41.8173 136.756 43.1664 127.335 43.1664V21.0824Z" fill="#009E77"/>
<path d="M127.923 47.7219H107.92V16.5217H127.923C150.094 16.5217 157 17.9979 157 27.2069V38.249C157 44.2514 152.239 47.7219 127.923 47.7219ZM108.138 47.4775H127.923C152.06 47.4775 156.782 44.095 156.782 38.2538V27.2118C156.782 18.2081 149.928 16.771 127.923 16.771H108.138V47.4775ZM127.339 43.2885H127.23V20.96H127.339C136.918 20.96 137.685 21.7421 137.685 26.1267V38.86C137.685 41.9394 136.709 43.2885 127.339 43.2885ZM127.448 21.2044V43.0441C137.018 43.0343 137.467 41.5972 137.467 38.86V26.1218C137.467 22.1576 137.101 21.2093 127.448 21.2044Z" fill="#009E77"/>
</svg>
